# xmcd
#
# Track frame offsets: 
#        150
#        19612
#        38985
#        56930
#        75319
#        93483
#        108834
#        129026
#        150014
#        169134
#        188741
#        203488
#        223319
#
# Disc length: 3225 seconds
#
# Revision: 0
# Processed by: cddbd v1.5.2PL0 Copyright (c) Steve Scherf et al.
# Submitted via: ExactAudioCopy v1.0b3
#
DISCID=9a0c970d
DTITLE=Various Artist - AsiaCD300 - Anh Bang - Dong Nhac Luu Vong 1
DYEAR=2011
DGENRE=Blues
TTITLE0=Ho Hoang Yen - Sao anh khong den
TTITLE1=Quoc Khanh - Mo Doi
TTITLE2=Diem Lien - Chap Nhan
TTITLE3=Nguyen Hong Nhung - Mat Anh Dem Giang Sinh
TTITLE4=Mai Thanh Son - Lo Mot Cuoc Tinh So 8
TTITLE5=Doan Phi and Thuy Huong - Chuyen Tinh Mua Thu
TTITLE6=Thien Kim - Kinh Hanh Phuc
TTITLE7=Lam Nhat Tien - Bai Ca Cua Dem
TTITLE8=Y Phuong - Co Mot Ngay
TTITLE9=Le Anh Quan - Mua Chieu
TTITLE10=Anh Minh - Em Mai Con Tinh Dau
TTITLE11=Lam Thuy Van - Ke Chuyen Dem Vo Cung
TTITLE12=Nguyen Khang - Nhu Em
EXTD=
EXTT0=
EXTT1=
EXTT2=
EXTT3=
EXTT4=
EXTT5=
EXTT6=
EXTT7=
EXTT8=
EXTT9=
EXTT10=
EXTT11=
EXTT12=
PLAYORDER=
